# xmcd
# 
# Track frame offsets:
#   150
#   17416
#   31635
#   47553
#   68935
#   85794
#   104537
#   125182
#   142870
#   161136
#   180058
#   199124
#   217518
#   234833
#   252383
# 
# Disc length: 3585 seconds
# 
# Revision: 0
# Processed by: cddbd v1.5.2PL0 Copyright (c) Steve Scherf et al.
# Submitted via: Synapstar 1.0 
# 
DISCID=b70dff0f
DTITLE=Various Artist - sc Ch Vol 172 8881
DYEAR=1900
DGENRE=Country
TTITLE0=Andy Griggs - She Thinks She Needs Me
TTITLE1=Travis Tritt - The Girls Gone Wild
TTITLE2=Montgomery Gentry - I Got Drunk
TTITLE3=David Lee Murphy - Loco
TTITLE4=Rachel Proctor - Me and Emily
TTITLE5=Mindy Smith - Come To Jesus
TTITLE6=Amy Dalley - Men Don't Change
TTITLE7=Billy Dean - Thank God I'm a Country Boy
TTITLE8=Buddy Jewel - One Step At a Time
TTITLE9=The Jenkins - Blame It on Mama
TTITLE10=Loretta Lynn - Miss Being Mrs.
TTITLE11=Dolley Parton - Welcome Home
TTITLE12=The Warren Brothers - Sell A Lot of Beer
TTITLE13=Montgomery Gentry - You Do Your Thing
TTITLE14=Gretchen Wilson - When I Think About Cheatin'
EXTD=MediaType: Karaoke CD+G Producer: Sound Choice
EXTT0=
EXTT1=
EXTT2=
EXTT3=
EXTT4=
EXTT5=
EXTT6=
EXTT7=
EXTT8=
EXTT9=
EXTT10=
EXTT11=
EXTT12=
EXTT13=
EXTT14=
PLAYORDER=
